# Wavefront Obj file
# 
# verts: 116 uv-s: 152
mtllib wooden-log-07-low.mtl

g mmGroup0
#pivot 0.000000 0.000000 0.000000

v -3.106237 -10.592953 -7.283563
v -7.559228 -90.139816 -10.224716
v -16.699135 46.265335 6.518393
v -10.939400 -96.727524 11.163195
v -18.891985 116.051331 -0.294852
v -17.112782 -96.070114 5.135678
v -17.990086 28.689079 -0.073808
v 3.599873 70.385834 9.200147
v -16.415148 -11.219101 -2.092667
v -13.242055 -82.399567 -7.343903
v -11.200409 115.381226 12.915573
v 1.004773 -63.668201 7.991446
v -12.789119 -96.271851 -6.868001
v 0.994041 117.538071 -8.275419
v -11.960964 115.046036 -10.547691
v 2.588181 -84.518799 -4.127011
v -6.265421 116.867844 -11.443695
v -1.604974 -76.604599 -7.289595
v 0.805490 -96.396683 9.725992
v -5.790391 22.879242 -8.458200
v 3.357855 117.089264 -5.579118
v -0.837947 -95.935226 -8.917015
v -11.676106 117.692673 11.558308
v 0.256155 -91.211639 10.365574
v -17.913280 108.540085 -4.548754
v -9.697744 37.300640 -8.122425
v -13.615523 -72.728836 9.548916
v -11.718665 -94.700882 -8.290459
v -7.990041 30.067871 13.085264
v -3.981886 66.752571 12.789419
v -19.117964 -44.171406 0.303068
v -12.729757 -96.365723 10.788168
v 2.153100 15.450853 -4.138048
v -16.458097 -73.347504 -1.898874
v -4.686252 109.862122 -11.417616
v -5.905696 -67.403671 -8.310593
v -0.219720 93.059692 -9.267445
v -14.288072 -96.347031 9.379284
v 3.157335 -95.816818 7.149095
v -18.186640 92.926910 4.937327
v -18.082598 44.545940 3.127887
v 5.209768 110.764648 -3.682487
v -3.917948 -48.783806 10.855429
v 1.102484 116.702103 -8.791384
v -16.656900 117.557571 7.776855
v 2.899775 -40.986378 -2.380726
v -9.412491 100.241714 -11.123188
v -7.176223 118.042740 4.106349
v -16.448769 -86.270950 -4.466472
v 5.437763 116.831360 -0.079485
v 2.990460 27.712702 8.640841
v 4.410318 85.792862 -4.886300
v -11.780725 2.000587 11.066874
v -17.085590 109.283905 8.328670
v -9.663784 -71.865295 -8.279659
v 4.770796 58.092548 6.398436
v -11.540933 -10.745008 -6.727468
v -17.627283 -44.470810 -4.391894
v -17.188025 5.061444 2.083965
v -17.773548 117.241547 0.210422
v -7.050489 -96.193436 11.494627
v -6.818998 13.897319 12.434225
v -15.801249 -73.674698 7.001819
v -17.042969 117.007614 -5.467600
v 3.805692 116.206345 8.465850
v 4.911085 117.310791 3.809943
v -2.680898 -95.820389 10.293318
v -1.672424 -24.419971 9.770737
v 3.113338 6.826601 -0.781926
v -14.035079 -96.719009 -0.508352
v 0.527160 117.380142 11.670507
v 5.238053 31.299694 0.409732
v 5.358687 42.955711 3.753063
v -3.525847 -96.681793 -9.842556
v -1.193702 36.786274 12.202896
v 2.859619 -96.618011 -4.554839
v -11.588572 116.999222 -10.122679
v -3.831725 117.459702 12.824677
v 0.377067 17.272039 10.303612
v -15.486143 -95.885223 -4.794625
v -9.909483 -69.708237 11.338505
v -15.149081 16.072828 7.488863
v 4.829794 60.224804 -2.041266
v -6.150581 -88.479858 12.328697
v 4.206979 -96.491119 -1.539808
v -17.535948 -88.943878 1.327250
v -15.769896 26.504063 -4.233897
v -13.619270 62.631809 10.493582
v 3.122658 -36.212955 2.225364
v -6.636200 116.473083 13.861008
v 1.118058 -48.485394 -5.666741
v -15.012517 116.079636 10.823507
v -18.374119 -41.531647 4.129713
v -1.173059 37.784512 -7.613560
v -2.250139 -51.290016 -7.942559
v -5.998079 57.039173 -8.387196
v -14.934004 69.833488 -5.982571
v 5.952939 115.982559 2.979599
v -8.290489 -24.295017 -8.218914
v -14.594058 102.179855 -8.671164
v 2.267632 117.735886 9.870359
v -15.541543 -10.147152 8.235320
v 6.412713 78.694397 0.490398
v 1.162786 61.240757 -6.347803
v -8.671816 -41.736385 -9.340776
v 3.574507 -96.616684 5.306368
v 4.595307 -91.602203 3.104365
v -18.577215 115.735977 4.626673
v 0.692921 65.514984 11.006504
v -9.181698 -25.358498 11.910122
v 6.408367 79.598129 4.784805
v -11.677468 80.779419 -8.638689
v 3.494895 -67.945099 1.398357
v -12.716833 -44.240097 -8.301914
v -17.090513 -72.814590 2.983784
v 2.739624 4.982746 4.942699
# 116 positions

vt 0.106959 0.711927
vt 0.095840 0.831600
vt 0.132904 0.712770
vt 0.089992 0.701159
vt 0.078940 0.812599
vt 0.306956 0.738520
vt 0.316495 0.610711
vt 0.294822 0.675050
vt 0.086775 0.084919
vt 0.110732 0.076166
vt 0.096464 0.020261
vt 0.012482 0.815043
vt 0.045694 0.730828
vt 0.029808 0.698340
vt 0.090283 0.625360
vt 0.203100 0.018430
vt 0.188757 0.046675
vt 0.203182 0.248968
vt 0.071734 0.939940
vt 0.088166 0.911287
vt 0.113735 0.876565
vt 0.187288 0.563881
vt 0.196985 0.835503
vt 0.207558 0.511430
vt 0.323748 0.989374
vt 0.352194 0.990000
vt 0.333988 0.987115
vt 0.157578 0.904849
vt 0.182886 0.839427
vt 0.164361 0.835336
vt 0.280186 0.825157
vt 0.149944 0.395080
vt 0.129431 0.404705
vt 0.158379 0.497847
vt 0.020418 0.261430
vt 0.039901 0.454127
vt 0.044811 0.255916
vt 0.037448 0.017259
vt 0.048629 0.118019
vt 0.065957 0.044094
vt 0.132983 0.048642
vt 0.151377 0.015975
vt 0.127564 0.011886
vt 0.394295 0.136477
vt 0.418705 0.134447
vt 0.417529 0.127166
vt 0.438082 0.047718
vt 0.385362 0.032237
vt 0.411159 0.078482
vt 0.259264 0.361950
vt 0.252077 0.231451
vt 0.228618 0.390085
vt 0.298194 0.828946
vt 0.437993 0.124521
vt 0.080684 0.421020
vt 0.097033 0.358143
vt 0.078268 0.272973
vt 0.289215 0.096574
vt 0.282129 0.343050
vt 0.312337 0.227019
vt 0.172582 0.116791
vt 0.172590 0.017600
vt 0.444677 0.107657
vt 0.189304 0.010606
vt 0.334173 0.769456
vt 0.319738 0.790139
vt 0.221263 0.020986
vt 0.216719 0.010000
vt 0.257675 0.083981
vt 0.260437 0.208621
vt 0.271106 0.110598
vt 0.449198 0.055848
vt 0.449201 0.080665
vt 0.364934 0.986403
vt 0.022868 0.150947
vt 0.100974 0.169377
vt 0.119908 0.216657
vt 0.172649 0.937452
vt 0.281654 0.626036
vt 0.269017 0.747422
vt 0.132471 0.892892
vt 0.130132 0.932908
vt 0.240825 0.015321
vt 0.414260 0.030019
vt 0.256115 0.855101
vt 0.024806 0.491588
vt 0.014686 0.386051
vt 0.315357 0.982707
vt 0.356106 0.774689
vt 0.231460 0.460365
vt 0.107848 0.566446
vt 0.295444 0.988123
vt 0.291390 0.981175
vt 0.059219 0.356909
vt 0.021710 0.939464
vt 0.035528 0.887181
vt 0.180041 0.319296
vt 0.164170 0.326548
vt 0.185140 0.450310
vt 0.137987 0.568519
vt 0.279089 0.984918
vt 0.255317 0.989706
vt 0.262435 0.960711
vt 0.067083 0.566275
vt 0.153074 0.711249
vt 0.142349 0.837451
vt 0.301810 0.514923
vt 0.169211 0.699856
vt 0.020814 0.015181
vt 0.010000 0.043134
vt 0.352125 0.057318
vt 0.346313 0.071895
vt 0.070878 0.012990
vt 0.349522 0.106784
vt 0.366643 0.122894
vt 0.218876 0.630456
vt 0.241998 0.732116
vt 0.264736 0.446723
vt 0.362292 0.130067
vt 0.036368 0.013389
vt 0.059977 0.935852
vt 0.035977 0.940403
vt 0.282277 0.092721
vt 0.341119 0.648171
vt 0.327093 0.566255
vt 0.333591 0.390168
vt 0.313593 0.090138
vt 0.309047 0.112701
vt 0.339065 0.114017
vt 0.277048 0.010000
vt 0.251185 0.035599
vt 0.286320 0.013794
vt 0.250223 0.071154
vt 0.108143 0.930878
vt 0.310765 0.026419
vt 0.301973 0.094560
vt 0.328849 0.081812
vt 0.340334 0.070059
vt 0.233800 0.904469
vt 0.203811 0.937270
vt 0.211273 0.939577
vt 0.116848 0.937224
vt 0.144489 0.945163
vt 0.346528 0.285996
vt 0.343560 0.053860
vt 0.337871 0.032729
vt 0.194963 0.938321
vt 0.277360 0.523222
vt 0.059726 0.852598
vt 0.062802 0.742882
vt 0.010029 0.677554
vt 0.215468 0.822440
# 152 texture coordinates

vn -0.658276 -0.038130 -0.751810
vn -0.196442 0.034759 -0.979899
vn -0.290473 -0.045967 -0.955778
vn 0.081694 0.003921 -0.996650
vn 0.057473 0.000823 -0.998347
vn 0.959331 -0.049048 0.277990
vn 0.749998 -0.015423 0.661260
vn 0.854384 -0.011723 0.519509
vn -0.232269 -0.018992 -0.972466
vn -0.647474 0.002784 -0.762082
vn -0.334800 -0.027813 -0.941879
vn 0.965649 -0.003595 -0.259823
vn 0.798258 -0.006745 -0.602278
vn 0.999626 0.019475 -0.019179
vn -0.287308 0.067737 -0.955440
vn -0.132296 0.037577 -0.990498
vn -0.255406 0.060697 -0.964927
vn -0.622441 -0.020819 0.782390
vn -0.811577 -0.021561 0.583848
vn -0.618203 -0.020965 0.785738
vn -0.197517 0.001872 -0.980298
vn 0.237659 0.090034 -0.967167
vn -0.542792 0.000666 -0.839867
vn -0.426583 -0.002351 0.904445
vn -0.554061 -0.006286 0.832452
vn -0.631543 0.014826 0.775199
vn 0.090751 0.956635 0.276792
vn 0.010609 0.899311 0.437180
vn -0.004402 0.996451 0.084065
vn -0.995942 0.018458 0.088080
vn -0.920088 0.009155 0.391604
vn -0.992194 0.026421 0.121876
vn 0.916146 -0.057610 0.396684
vn 0.995009 -0.040742 -0.091091
vn 0.999688 -0.016252 -0.018949
vn -0.972286 -0.010424 -0.233561
vn -0.760382 -0.026125 -0.648950
vn -0.894953 -0.070612 -0.440538
vn 0.704350 -0.019011 -0.709599
vn 0.852943 -0.034597 -0.520857
vn 0.819493 -0.022173 -0.572660
vn 0.379317 0.034000 -0.924642
vn 0.466919 -0.041544 -0.883324
vn 0.418129 -0.005093 -0.908374
vn -0.879666 0.411550 -0.238357
vn -0.850946 0.509788 -0.126517
vn -0.943416 0.061608 -0.325838
vn -0.378259 0.921636 -0.086641
vn 0.019767 0.998053 0.059162
vn 0.060563 0.998153 0.004863
vn -0.020061 0.999797 0.001852
vn 0.111138 -0.010577 0.993749
vn 0.249284 0.004240 0.968421
vn 0.377796 -0.021231 0.925645
vn 0.961794 -0.022474 0.272851
vn -0.749832 0.655865 0.087141
vn -0.884555 0.458817 0.083960
vn 0.006509 -0.013447 -0.999888
vn -0.222251 -0.015811 -0.974861
vn 0.045607 0.002354 -0.998957
vn 0.752436 0.043550 0.657225
vn 0.980914 0.022685 0.193116
vn 0.903766 0.040548 0.426101
vn -0.997895 -0.016233 0.062783
vn -0.977110 -0.013840 0.212286
vn -0.022541 0.999670 -0.012308
vn -0.011406 0.999619 -0.025154
vn -0.891914 0.043070 0.450149
vn -0.903570 0.036061 0.426920
vn -0.754857 0.503961 0.419780
vn -0.690468 0.330225 0.643588
vn 0.732268 -0.027371 0.680467
vn 0.448660 -0.010007 0.893647
vn 0.622955 -0.000389 0.782258
vn -0.425499 0.554210 0.715403
vn -0.331700 0.425992 0.841728
vn 0.986702 -0.035135 0.158698
vn 0.956630 0.043458 -0.288046
vn -0.116664 0.853123 0.508499
vn -0.035796 0.539248 0.841386
vn 0.044798 0.994513 -0.094538
vn 0.251405 0.263600 0.931295
vn 0.302182 0.083363 0.949598
vn 0.692514 -0.041466 -0.720212
vn 0.510705 -0.038434 -0.858897
vn 0.938071 -0.033349 -0.344835
vn -0.650118 -0.043071 -0.758612
vn -0.369160 -0.053432 -0.927829
vn -0.593192 -0.057974 -0.802971
vn -0.878656 0.017589 0.477131
vn 0.958559 -0.010595 -0.284697
vn -0.797000 -0.053853 -0.601574
vn -0.878769 0.009197 -0.477159
vn -0.980278 -0.067348 -0.185794
vn 0.109548 0.989379 -0.095548
vn 0.887921 -0.011595 -0.459849
vn 0.958472 0.000495 -0.285187
vn 0.700467 -0.012467 -0.713576
vn 0.746921 0.011392 -0.664815
vn 0.853431 0.281071 0.438924
vn 0.710094 0.070774 0.700541
vn 0.710094 0.070774 0.700541
vn 0.050285 -0.018837 0.998557
vn 0.126252 -0.011231 0.991935
vn -0.523459 -0.010714 0.851984
vn -0.368067 -0.024509 0.929476
vn 0.075661 -0.029592 0.996695
vn -0.409311 -0.017366 -0.912230
vn -0.405222 0.002569 -0.914215
vn -0.021650 -0.010332 -0.999712
vn 0.891456 0.381137 0.245032
vn 0.815624 0.488786 0.309590
vn 0.995148 -0.072108 -0.066946
vn 0.993227 -0.048672 -0.105502
vn 0.797844 0.515961 0.311815
vn 0.215157 0.014683 -0.976469
vn 0.508931 -0.023469 -0.860487
vn 0.957152 0.043103 -0.286359
vn 0.884290 0.044509 -0.464812
vn -0.842896 -0.007862 0.538019
vn -0.952781 -0.030708 0.302102
vn -0.846899 -0.026408 0.531097
vn -0.852595 0.026045 -0.521923
vn 0.796422 0.603817 0.033416
vn 0.582001 0.812907 -0.021393
vn 0.092751 0.995628 -0.011085
vn 0.995200 0.028747 -0.093546
vn 0.962259 0.111318 -0.248327
vn 0.926503 0.051027 -0.372812
vn 0.154205 0.010580 -0.987982
vn -0.975039 -0.073066 -0.209669
vn -0.953182 -0.004278 -0.302368
vn -0.991106 -0.035339 -0.128298
vn 0.954233 -0.010841 0.298868
vn 0.748387 -0.000882 0.663262
vn 0.843037 -0.038328 0.536488
vn -0.940908 0.070436 -0.331257
vn 0.774432 0.006659 0.632623
vn -0.906906 -0.072551 -0.415040
vn -0.704287 0.031915 -0.709198
vn -0.945713 -0.009283 0.324871
vn -0.848282 -0.023123 0.529040
vn -0.988963 -0.060775 0.135122
vn 0.011290 -0.034285 -0.999348
vn -0.129460 -0.072858 -0.988904
vn 0.203042 -0.064854 -0.977020
vn -0.291747 -0.016196 0.956358
vn 0.924597 0.168237 -0.341784
vn 0.758344 0.015791 -0.651663
vn 0.777024 0.253603 -0.576124
vn -0.003757 0.998270 -0.058682
vn 0.066868 0.970164 -0.233048
vn -0.864803 -0.019062 -0.501749
vn -0.999619 -0.009088 -0.026058
vn -0.975482 -0.015605 -0.219525
vn 0.328177 0.310076 -0.892274
vn 0.328177 0.310076 -0.892274
vn -0.984781 -0.011067 0.173446
vn -0.026919 0.993940 -0.106573
vn -0.158935 0.489305 -0.857508
vn -0.217876 -0.000339 0.975976
vn 0.487305 -0.043461 0.872150
vn 0.424926 -0.027532 0.904809
vn -0.534182 0.194755 -0.822630
vn -0.227541 0.248272 -0.941587
vn 0.986125 0.007022 -0.165855
vn -0.704782 0.110071 -0.700833
vn -0.790079 -0.015118 -0.612819
vn -0.623356 0.277890 -0.730893
vn 0.931217 0.029679 0.363255
vn -0.950597 0.055768 -0.305377
vn -0.083215 -0.008296 0.996497
vn 0.846669 0.037763 -0.530778
vn 0.607273 0.075360 -0.790911
vn -0.938167 0.005777 0.346135
vn -0.908474 0.020672 0.417431
vn -0.998161 0.050763 0.033120
vn 0.908726 -0.317330 0.271144
vn 0.963348 -0.084276 0.254672
vn 0.770257 -0.061476 0.634764
vn 0.727039 -0.022361 0.686232
vn 0.056374 -0.104954 0.992878
vn 0.224163 -0.082794 0.971028
vn 0.214514 -0.133755 0.967519
vn -0.119657 -0.943944 -0.307656
vn -0.280065 -0.532443 -0.798792
vn -0.324892 -0.245653 -0.913291
vn -0.011519 -0.999897 -0.008516
vn -0.029053 -0.998466 0.047128
vn -0.663817 -0.013380 0.747776
vn 0.379165 -0.809584 -0.448116
vn 0.379165 -0.809584 -0.448116
vn 0.379165 -0.809584 -0.448116
vn -0.228138 -0.196363 -0.953622
vn -0.170046 -0.984702 -0.038018
vn 0.111355 -0.993749 -0.007939
vn 0.111355 -0.993749 -0.007939
vn 0.111355 -0.993749 -0.007939
vn -0.874119 -0.019189 0.485333
vn -0.955920 -0.013155 0.293332
vn 0.006270 -0.999979 -0.001391
vn -0.005808 -0.997800 0.066049
vn 0.468802 -0.059045 0.881328
vn 0.709438 0.027112 0.704246
vn 0.729583 -0.351179 0.586841
vn 0.261797 -0.941797 0.210904
vn 0.029830 -0.990011 0.137795
vn 0.982951 -0.161524 0.087846
vn 0.102756 -0.118776 0.987590
vn -0.995123 -0.025068 0.095399
vn 0.034373 -0.991517 0.125353
vn 0.122821 -0.982258 0.141721
vn 0.609937 -0.025242 0.792048
vn -0.140108 -0.058325 0.988417
vn -0.220795 -0.006318 0.975300
vn -0.507241 -0.024980 -0.861442
vn -0.611685 -0.259790 -0.747229
vn -0.487466 -0.715313 -0.500704
vn -0.648280 -0.144418 -0.747581
vn 0.988378 -0.050883 0.143248
vn 0.891092 -0.082442 0.446272
vn -0.592118 -0.794643 -0.133937
vn 0.100771 0.010666 0.994852
vn 0.472614 0.021421 0.881009
vn -0.571786 -0.816592 -0.078981
vn -0.174738 -0.978611 0.108571
vn -0.657944 0.066791 -0.750099
vn -0.657944 0.066791 -0.750099
vn -0.623526 0.058536 -0.779609
vn -0.773500 -0.022640 -0.633392
vn 0.473034 0.007464 -0.881013
vn 0.712227 0.433263 -0.552283
vn 0.712227 0.433263 -0.552283
vn -0.690677 0.013496 0.723038
vn -0.242723 -0.935693 0.256053
vn -0.242723 -0.935693 0.256053
vn 0.999942 0.000966 0.010728
vn -0.557845 -0.035246 -0.829197
vn 0.465340 0.037648 -0.884331
vn 0.787723 0.036979 -0.614919
vn 0.351318 -0.000225 -0.936256
vn -0.756880 0.016860 0.653337
vn 0.280557 0.019836 0.959632
vn -0.567247 0.021905 0.823256
vn -0.354080 0.005565 0.935198
vn -0.233204 0.004597 0.972417
# 246 normals

usemtl Default
s 1
f 114/1/3 55/2/2 58/3/1
f 105/4/5 36/5/4 114/1/3
f 74/19/22 2/20/21 55/2/2
f 2/20/21 10/21/23 55/2/2
f 91/13/99 33/36/98 69/86/97
f 33/36/98 94/94/117 104/37/39
f 10/21/140 34/106/139 58/3/1
f 74/19/22 55/2/2 36/5/4
f 10/21/140 58/3/1 55/2/2
f 114/1/3 36/5/4 55/2/2
f 74/19/194 28/134/187 2/20/21
f 2/20/21 28/134/187 10/21/23
f 33/36/98 91/13/99 1/104/231
f 94/94/117 33/36/98 1/104/231
f 22/121/174 74/19/22 18/149/239
f 16/96/240 22/121/174 18/149/239
f 36/5/4 18/149/239 74/19/22
f 18/149/239 91/13/13 16/96/240
f 16/96/240 91/13/13 113/12/118
f 18/149/239 36/5/4 95/150/241
f 95/150/241 91/13/13 18/149/239
f 36/5/4 105/4/5 95/150/241
f 89/151/237 46/14/12 69/86/97
f 95/150/241 105/4/5 1/104/231
f 91/13/99 95/150/241 1/104/231
f 69/86/97 46/14/12 91/13/99
s 2
f 56/6/8 51/7/7 73/8/6
f 75/50/54 30/51/53 29/52/52
f 43/117/163 79/118/162 62/90/107
f 110/116/172 43/117/163 62/90/107
f 75/124/54 79/125/180 51/7/7
f 110/116/172 62/90/107 53/24/24
f 75/50/54 29/52/52 62/90/107
f 75/124/54 109/65/213 30/89/53
f 109/65/213 51/7/7 56/6/8
f 79/118/162 75/50/54 62/90/107
f 51/7/7 109/65/213 75/124/54
f 68/126/181 79/125/162 43/144/163
s 3
f 47/9/11 100/10/10 15/11/9
f 17/113/160 35/40/144 15/11/9
f 35/40/144 47/9/11 15/11/9
s 4
f 113/12/14 91/13/13 46/14/12
f 39/58/63 89/59/62 12/60/61
f 85/69/78 113/70/14 107/71/77
f 113/70/14 39/58/63 107/71/77
f 39/58/63 113/70/14 89/59/62
f 12/60/61 43/144/224 24/128/204
f 39/58/63 12/60/61 24/128/204
f 113/12/14 46/14/12 89/151/62
s 5
f 114/1/17 99/15/16 105/4/15
f 7/32/38 87/33/37 59/34/36
f 20/55/110 57/91/109 26/56/108
f 9/100/123 87/33/37 57/91/109
f 1/104/130 99/15/16 20/55/110
f 20/55/110 99/15/16 57/91/109
f 9/100/123 59/34/36 87/33/37
f 87/33/37 97/77/216 26/56/108
f 57/91/109 87/33/37 26/56/108
f 31/105/177 59/34/36 9/100/123
f 94/94/117 1/104/130 20/55/110
f 99/15/16 114/1/17 57/91/109
f 105/4/5 99/15/16 1/104/130
s 6
f 92/16/20 54/17/19 88/18/18
f 7/32/155 5/42/154 25/41/153
f 7/32/155 41/98/158 5/42/154
f 92/16/20 88/18/18 11/67/147
f 40/61/200 41/98/158 3/97/199
f 41/98/158 40/61/200 5/42/154
f 87/33/230 25/41/153 97/77/87
f 7/32/155 25/41/153 87/33/230
f 3/97/199 54/17/19 40/61/200
f 88/18/18 54/17/19 3/97/199
f 29/52/106 11/67/147 88/18/18
s 7
f 102/22/26 27/23/25 53/24/24
f 110/116/161 53/24/24 27/23/25
f 43/117/243 110/116/161 84/139/223
f 110/116/161 81/152/245 84/139/223
f 81/152/245 110/116/161 27/23/25
s 8
f 101/25/29 78/26/28 71/27/27
s 9
f 86/28/32 63/29/31 115/30/30
f 6/78/90 63/29/31 86/28/32
f 86/28/32 115/30/30 34/106/137
f 63/29/31 6/78/90 27/23/234
f 38/147/242 27/23/234 6/78/90
f 27/23/234 38/147/242 32/140/244
f 27/23/234 32/140/244 81/152/245
s 10
f 73/8/35 103/31/34 56/6/33
f 103/31/34 111/53/55 56/6/33
f 71/27/74 109/65/73 8/66/72
f 73/8/35 72/79/91 83/80/86
f 83/80/86 52/85/96 103/31/34
f 83/80/86 103/31/34 73/8/35
f 65/88/138 8/66/72 111/53/55
f 56/6/33 111/53/55 8/66/72
f 8/66/72 65/88/138 71/27/74
f 56/6/33 8/66/72 109/65/213
s 11
f 83/35/41 33/36/40 104/37/39
f 33/36/40 83/35/41 72/87/91
s 12
f 44/38/44 37/39/43 35/40/42
s 13
f 25/41/47 5/42/46 64/43/45
f 64/44/45 5/45/46 60/46/48
s 14
f 78/47/51 66/48/50 48/49/49
f 48/49/49 45/63/67 78/47/51
s 15
f 5/45/46 108/54/57 60/46/56
f 45/63/70 60/46/56 108/54/57
s 16
f 20/55/60 26/56/59 96/57/58
f 96/57/58 104/37/85 94/94/116
f 112/76/88 96/57/58 26/56/59
f 96/57/58 112/76/88 47/9/145
f 96/57/58 94/94/116 20/55/60
f 26/56/59 97/77/238 112/76/88
s 17
f 40/61/65 108/62/57 5/42/64
s 18
f 60/46/48 45/63/67 64/44/66
f 48/49/151 21/111/126 64/44/66
f 14/112/152 64/44/66 21/111/126
f 14/112/152 17/114/160 77/115/159
f 64/44/66 14/112/152 77/115/159
f 48/49/151 66/48/50 21/111/126
f 48/49/151 64/44/66 45/63/67
s 19
f 40/61/65 54/17/69 108/62/68
f 108/62/68 92/16/71 45/64/70
f 108/62/68 54/17/69 92/16/71
f 11/67/76 23/68/75 92/16/71
f 92/16/71 23/68/75 45/64/70
s 20
f 90/72/80 78/47/28 23/73/79
f 23/68/79 11/67/76 90/83/80
s 21
f 23/73/79 78/47/81 45/63/67
s 22
f 71/27/83 78/26/82 90/74/80
s 23
f 83/35/86 104/37/85 52/75/84
f 96/57/146 47/9/145 35/40/144
f 104/37/85 37/39/43 52/75/84
f 104/37/85 96/57/146 37/39/43
f 52/75/84 37/39/43 44/38/149
f 35/40/144 37/39/43 96/57/146
s 24
f 100/10/89 112/76/88 97/77/87
f 112/76/88 100/10/89 47/9/11
f 97/77/87 25/41/168 100/10/89
s 25
f 86/28/94 49/81/93 80/82/92
f 34/106/137 49/81/93 86/28/94
f 34/106/137 10/21/140 49/81/93
f 80/82/92 49/81/93 10/21/23
f 28/134/219 80/82/92 10/21/23
s 26
f 66/48/95 78/47/51 101/84/29
s 27
f 101/25/102 71/27/101 65/88/100
s 28
f 30/89/104 71/27/83 90/74/103
f 90/83/103 11/67/147 30/51/104
f 109/65/73 71/27/83 30/89/104
f 30/51/104 11/67/147 29/52/52
s 29
f 62/90/107 29/52/106 53/24/105
f 3/97/122 41/98/121 82/99/120
f 31/105/133 58/3/132 34/106/131
f 115/30/143 63/29/142 93/108/141
f 34/106/131 115/30/143 31/105/133
f 31/105/133 9/100/171 58/3/132
f 31/105/177 102/22/176 59/34/175
f 59/34/175 82/99/120 41/98/121
f 29/52/106 88/18/190 53/24/105
f 82/99/120 88/18/190 3/97/122
f 115/30/143 93/108/141 31/105/133
f 82/99/120 53/24/105 88/18/190
f 63/29/142 27/23/25 102/22/176
f 93/108/141 102/22/176 31/105/177
f 93/108/141 63/29/142 102/22/176
f 102/22/26 53/24/105 82/99/120
f 102/22/176 82/99/120 59/34/175
s 30
f 66/92/112 65/88/100 98/93/111
f 66/92/112 101/25/115 65/88/100
f 111/53/170 98/93/111 65/88/100
s 31
f 69/86/114 33/36/40 72/87/113
f 51/7/221 116/107/220 73/8/6
f 89/59/237 69/148/114 116/107/220
f 73/8/6 116/107/220 72/79/113
f 116/107/220 69/148/114 72/79/113
s 32
f 85/95/78 16/96/119 113/12/118
f 22/121/174 16/96/119 76/122/173
f 16/96/119 85/95/78 76/122/173
s 33
f 98/93/111 50/101/125 66/92/124
s 34
f 21/102/126 66/92/95 50/101/125
s 35
f 42/103/129 50/101/128 98/93/127
f 21/102/148 50/101/128 42/103/129
f 21/109/150 42/110/129 44/38/149
f 103/31/166 42/103/129 98/93/127
f 111/53/55 103/31/166 98/93/127
f 52/75/96 44/38/149 42/110/129
f 52/85/96 42/103/129 103/31/166
s 36
f 116/107/136 12/60/135 89/59/134
f 12/60/135 116/107/136 68/126/181
f 68/126/181 116/107/136 79/125/180
f 51/7/221 79/125/180 116/107/136
f 68/126/181 43/144/224 12/60/135
s 37
f 35/40/42 17/113/157 44/38/156
f 14/120/152 44/38/156 17/113/157
s 38
f 77/115/165 17/114/160 15/119/164
s 39
f 25/41/168 64/43/167 100/10/10
f 64/44/167 77/115/169 15/119/164
f 15/11/164 100/10/10 64/43/167
s 40
f 107/71/77 39/58/179 106/123/178
f 107/71/77 106/123/178 85/69/208
s 41
f 67/127/184 24/128/183 84/129/182
f 67/127/184 19/136/203 24/128/183
f 67/127/184 84/129/182 61/137/209
f 84/129/182 4/138/214 61/137/209
f 84/139/182 32/140/215 4/141/214
s 42
f 28/130/187 74/131/186 13/132/185
s 43
f 74/131/189 76/133/188 13/132/185
f 13/132/185 76/133/188 70/135/195
s 44
f 22/121/193 76/122/192 74/19/191
s 45
f 85/69/198 106/123/197 76/133/196
s 46
f 106/123/202 70/135/201 76/133/188
f 106/123/202 19/136/206 67/127/207
f 67/127/207 61/137/212 4/138/211
f 4/138/211 70/135/201 106/123/202
f 67/127/207 4/138/211 106/123/202
s 47
f 39/58/205 24/128/204 19/136/203
s 48
f 39/58/205 19/136/206 106/123/178
s 49
f 59/34/36 41/98/121 7/32/210
s 50
f 28/134/219 13/142/218 80/82/217
s 51
f 70/143/195 80/82/222 13/142/218
f 86/28/94 80/82/222 6/78/225
f 6/78/225 80/82/222 70/143/195
f 70/135/195 38/145/226 6/146/225
f 38/145/226 70/135/195 4/138/211
s 52
f 24/128/183 43/144/224 84/129/223
s 53
f 114/1/229 58/3/228 57/91/227
f 9/100/123 57/91/227 58/3/228
s 54
f 21/109/150 44/38/233 14/120/232
s 55
f 4/141/236 32/140/235 38/147/226
s 56
f 81/152/245 32/140/215 84/139/246

# 228 faces
